<svg width="167" height="72" viewBox="0 0 167 72" version="1.1" xmlns="http://www.w3.org/2000/svg" xmlns:xlink="http://www.w3.org/1999/xlink"><title>Artboard 3</title><defs><path d="M12.62.028l4.11 1.538c1.133 1.358 1.826 2.582 2.08 3.672.255 1.09.467 2.59.635 4.504l-7.733.733c-.241-1.512-.502-2.513-.783-3.005-.16-.28-.773-1.025-1.838-2.232-.031-.875-.013-1.575.054-2.1.075-.586.232-1.156.552-1.572.264-.342 1.238-.855 2.923-1.538z" id="a"/><rect id="b" x="19.806" y="1.54" width="2.676" height="12.474" rx="1.338"/><rect id="c" x="23.561" y="-.113" width="2.676" height="13.955" rx="1.338"/><rect id="d" x="23.859" y="4.121" width="2.676" height="13.955" rx="1.338"/><rect id="e" x="12.834" y="15.437" width="2.676" height="5.405" rx="1.338"/><rect id="f" x="15.945" y="22.225" width="2.676" height="5.405" rx="1.338"/><path d="M42.443.632a2.283 2.283 0 0 1 2.764 1.452l.548 1.581.695 1.844a1.296 1.296 0 0 1-.84 1.698 1.386 1.386 0 0 1-1.726-.93l-.607-2.034c-.312-.592-.534-1.085-.664-1.478-.054-.164-.215-.35-.483-.56a.898.898 0 0 1 .313-1.573z" id="g"/></defs><g stroke="none" stroke-width="1" fill="none" fill-rule="evenodd"><text font-family="BradleyHandITCTT-Bold, Bradley Hand" font-size="15" font-style="expanded" font-weight="bold" letter-spacing="-.019" fill="#4A4A4A" class="fill"><tspan x="22.432" y="66">view all Ingredient</tspan></text><path d="M70.173 39.107c8.38 0 15.173-6.2 15.173-13.849 0-4.287-.608-9.489-3.96-12.029-2.627-1.992-7.53-1.82-11.213-1.82-3.87 0-7.928.284-10.609 2.46C56.441 16.407 55 21.143 55 25.26c0 7.648 6.793 13.848 15.173 13.848z" stroke="#4A4A4A" class="stroke" stroke-width="2" fill="#FFF"/><path d="M69.626 11.763c-1.488 1.543-5.275 5.793-6.025 8.221-.825 2.668-.615 5.897-.615 8.648m8.163-16.867c1.488 1.542 5.275 5.793 6.025 8.22.825 2.669.616 5.898.616 8.648m-7.484-15.892V25.88" fill="#4A4A4A" class="fill"/><g transform="translate(55 2)"><use fill="#FFF" fill-rule="evenodd" xlink:href="#a"/><path stroke="#4A4A4A" class="stroke" stroke-width="2" d="M12.637 1.103c-1.276.533-2.05.946-2.147 1.073-.166.215-.288.585-.353 1.09-.05.394-.07.923-.057 1.582.975 1.112 1.523 1.786 1.718 2.127.286.5.524 1.293.74 2.417l5.816-.551c-.146-1.403-.32-2.53-.517-3.376-.202-.867-.768-1.892-1.71-3.057l-3.49-1.305z"/></g><g transform="translate(75)"><use fill="#FFF" fill-rule="evenodd" xlink:href="#b"/><rect stroke="#4A4A4A" class="stroke" stroke-width="2" x="20.806" y="2.54" width="1" height="10.474" rx=".5"/></g><g transform="rotate(29 62.399 151.867)"><use fill="#FFF" fill-rule="evenodd" xlink:href="#c"/><rect stroke="#4A4A4A" class="stroke" stroke-width="2" x="24.561" y=".887" width="1" height="11.955" rx=".5"/></g><g transform="rotate(56 62.698 81.626)"><use fill="#FFF" fill-rule="evenodd" xlink:href="#d"/><rect stroke="#4A4A4A" class="stroke" stroke-width="2" x="24.859" y="5.121" width="1" height="11.955" rx=".5"/></g><path d="M80.157 36.88c2.058 1.44 13.625-8.867 16.335-12.736 1.641-2.344 4-5.004 3.95-6.934-.019-.72-.796-2.049-1.824-2.962-.767-.68-1.786-1.026-2.133-1.269-1.133-.794-4.29-2.24-6.023-1.217-1.416.834-3.303 5.638-4.521 7.378-2.71 3.87-7.843 16.298-5.784 17.74z" stroke="#4A4A4A" class="stroke" stroke-width="2" fill="#FFF"/><g transform="rotate(121 51.672 39.356)"><use fill="#FFF" fill-rule="evenodd" xlink:href="#e"/><rect stroke="#4A4A4A" class="stroke" stroke-width="2" x="13.834" y="16.437" width="1" height="3.405" rx=".5"/></g><g transform="rotate(121 54.783 46.143)"><use fill="#FFF" fill-rule="evenodd" xlink:href="#f"/><rect stroke="#4A4A4A" class="stroke" stroke-width="2" x="16.945" y="23.225" width="1" height="3.405" rx=".5"/></g><g transform="translate(61 20)"><g transform="rotate(55 44.159 3.908)"><use fill="#FFF" fill-rule="evenodd" xlink:href="#g"/><path stroke="#4A4A4A" class="stroke" stroke-width="2" d="M42.915 1.557c.317.274.537.558.648.894.11.333.31.778.599 1.326l.073.18.607 2.033v.001c.061.204.276.32.48.259l.02-.007a.296.296 0 0 0 .172-.381l-.704-1.869-.548-1.58a1.283 1.283 0 0 0-1.347-.856z"/></g><ellipse stroke="#4A4A4A" class="stroke" stroke-width="2" fill="#FFF" cx="38.353" cy="10.074" rx="5.833" ry="6.186"/><path d="M8.572 22.622c2.618 0 14.272.57 21.651-.929 5.965-1.21 8.161-4.24 8.161-6.356 0-.714-.35-5.499-4.889-6.337-1.98-.366-3.796 1.801-6.563 2.259-3.574.59-15.135-5.78-18.36-5.78a8.572 8.572 0 1 0 0 17.143z" stroke="#4A4A4A" class="stroke" stroke-width="2" fill="#FFF"/></g></g></svg>