<svg width="16" height="16" viewBox="0 0 16 16" version="1.1" xmlns="http://www.w3.org/2000/svg" xmlns:xlink="http://www.w3.org/1999/xlink"><title>Combined Shape</title><defs><path d="M20.425 20.707a6 6 0 1 0-1.01 1.01c.002.253.1.505.292.697L23.293 26a1 1 0 0 0 1.414-1.414L21.121 21a.997.997 0 0 0-.696-.293z" id="a"/></defs><g transform="translate(-9 -11)" stroke="none" stroke-width="1" fill="none" fill-rule="evenodd"><use fill="#FFF" fill-rule="evenodd" xlink:href="#a"/><path stroke="#F00" stroke-width="1" d="M19.624 20.917l.408-.519a5.5 5.5 0 1 0-.927.927l.519-.408zm.285.285l.005.51c.002.13.053.255.147.349l3.585 3.585a.5.5 0 1 0 .708-.707l-3.586-3.585a.497.497 0 0 0-.348-.147l-.511-.005zm0 0l-.505-.006.22-.28.28-.219.005.505z"/></g></svg>