<svg width="72" height="72" viewBox="0 0 72 72" version="1.1" xmlns="http://www.w3.org/2000/svg"><title>Artboard 2</title><g transform="translate(21 21)" fill-rule="nonzero" fill="#4A4A4A" class="fill" stroke="none" stroke-width="1"><path d="M15 2.7c4 0 4.48 0 6.06.09a8.3 8.3 0 0 1 2.79.52 4.65 4.65 0 0 1 1.72 1.12 4.65 4.65 0 0 1 1.12 1.72 8.3 8.3 0 0 1 .52 2.79c.07 1.58.09 2.06.09 6.06 0 4 0 4.48-.09 6.06a8.3 8.3 0 0 1-.52 2.79 5 5 0 0 1-2.85 2.85 8.3 8.3 0 0 1-2.79.52c-1.58.07-2.06.09-6.06.09-4 0-4.48 0-6.06-.09a8.3 8.3 0 0 1-2.79-.52 4.65 4.65 0 0 1-1.72-1.12 4.65 4.65 0 0 1-1.12-1.72 8.3 8.3 0 0 1-.52-2.79C2.72 19.48 2.7 19 2.7 15s0-4.48.09-6.06a8.3 8.3 0 0 1 .52-2.79 4.65 4.65 0 0 1 1.12-1.72 4.65 4.65 0 0 1 1.72-1.12 8.3 8.3 0 0 1 2.79-.52C10.52 2.72 11 2.7 15 2.7zM15 0c-4.07 0-4.58 0-6.18.09a11 11 0 0 0-3.64.7 7.35 7.35 0 0 0-2.66 1.73A7.35 7.35 0 0 0 .79 5.17a11 11 0 0 0-.7 3.64C0 10.42 0 10.93 0 15s0 4.58.09 6.18a11 11 0 0 0 .7 3.64 7.35 7.35 0 0 0 1.73 2.66 7.35 7.35 0 0 0 2.66 1.73 11 11 0 0 0 3.64.7c1.6.07 2.11.09 6.18.09s4.58 0 6.18-.09a11 11 0 0 0 3.64-.7 7.67 7.67 0 0 0 4.39-4.39 11 11 0 0 0 .7-3.64c.09-1.6.09-2.11.09-6.18s0-4.58-.09-6.18a11 11 0 0 0-.7-3.64 7.35 7.35 0 0 0-1.73-2.66A7.35 7.35 0 0 0 24.83.79a11 11 0 0 0-3.64-.7C19.58 0 19.07 0 15 0z"/><path d="M15 7.3a7.7 7.7 0 1 0 0 15.4 7.7 7.7 0 0 0 0-15.4zM15 20a5 5 0 1 1 0-10 5 5 0 0 1 0 10z"/><circle cx="23.01" cy="6.99" r="1.8"/></g></svg>