<svg width="72" height="72" viewBox="0 0 72 72" version="1.1" xmlns="http://www.w3.org/2000/svg"><title>Artboard 2</title><path d="M48 28.31a9.833 9.833 0 0 1-2.828.776 4.94 4.94 0 0 0 2.165-2.726 9.854 9.854 0 0 1-3.127 1.196A4.916 4.916 0 0 0 40.616 26c-3.178 0-5.515 2.968-4.796 6.049a13.977 13.977 0 0 1-10.15-5.147 4.934 4.934 0 0 0 1.525 6.577 4.9 4.9 0 0 1-2.23-.616c-.054 2.282 1.58 4.417 3.949 4.893a4.93 4.93 0 0 1-2.224.084 4.929 4.929 0 0 0 4.6 3.421 9.898 9.898 0 0 1-7.29 2.04 13.933 13.933 0 0 0 7.548 2.214c9.141 0 14.306-7.726 13.995-14.655A10.006 10.006 0 0 0 48 28.31z" fill-rule="nonzero" fill="#4A4A4A" class="fill"/></svg>