<svg width="76" height="63" viewBox="0 0 76 63" version="1.1" xmlns="http://www.w3.org/2000/svg" xmlns:xlink="http://www.w3.org/1999/xlink"><title>Artboard 4</title><defs><rect id="a" x="0" y="0" width="31.957" height="45" rx="3"/><path d="M17.852 17.293c.485-.485 1.346-.41 1.816 0 .313.275.313.805 0 1.592h-1.816c-.324-.737-.324-1.268 0-1.592z" id="b"/></defs><g stroke="none" stroke-width="1" fill="none" fill-rule="evenodd"><text font-family="BradleyHandITCTT-Bold, Bradley Hand" font-size="10" font-style="expanded" font-weight="bold" letter-spacing="-.013" fill="#F00"><tspan x="7.122" y="59">view our recipe</tspan></text><g transform="translate(22)"><use fill="#FFF" fill-rule="evenodd" xlink:href="#a"/><rect stroke="#F00" stroke-width="1" x=".5" y=".5" width="30.957" height="44" rx="3"/><rect fill="#F00" x="3.261" y="0" width="1.331" height="5.217" rx=".665"/><rect fill="#F00" x="3.261" y="40.435" width="1.331" height="4.565" rx=".665"/><rect fill="#F00" x="3.261" y="7.174" width="1.331" height="6.522" rx=".665"/><rect fill="#F00" x="3.261" y="15.652" width="1.331" height="6.522" rx=".665"/><rect fill="#F00" x="3.261" y="23.478" width="1.331" height="6.522" rx=".665"/><rect fill="#F00" x="3.261" y="31.957" width="1.331" height="6.522" rx=".665"/><g transform="translate(8.478 18.913)" fill="#F00"><path d="M19.24 9.457c0-5.043-3.943-9.13-8.805-9.13-4.863 0-8.805 4.087-8.805 9.13"/><rect x="0" y="10.102" width="21.522" height="1.637" rx=".819"/></g><path d="M17.028 12.391c-.826.53-.942 1.174-.348 1.932.312.398.187 1.02-.376 1.868m3.333-4.451c-.826.529-.942 1.173-.348 1.931.312.398.186 1.02-.376 1.868m3.332-3.148c-.826.53-.941 1.174-.347 1.932.312.398.186 1.02-.376 1.868" stroke="#F00" stroke-width=".75" stroke-linecap="square"/><use fill="#FFF" fill-rule="evenodd" xlink:href="#b"/><path stroke="#F00" stroke-width=".75" d="M18.104 18.51h1.302c.171-.51.154-.813.014-.934-.357-.314-.99-.331-1.303-.017-.166.166-.188.47-.013.951z"/></g></g></svg>