<svg width="72" height="72" viewBox="0 0 72 72" version="1.1" xmlns="http://www.w3.org/2000/svg"><title>Artboard 4</title><g stroke="none" stroke-width="1" fill="none" fill-rule="evenodd"><circle fill="#F00" fill-rule="nonzero" cx="35.928" cy="35.928" r="35.928"/><path d="M52.02 62.64c9.648 0-17.46-11.772-17.46-26.316 0-14.544 27.108-26.316 17.46-26.316S34.56 21.78 34.56 36.324c0 14.544 7.812 26.316 17.46 26.316z" fill="#0BD5AA" fill-rule="nonzero"/><path d="M21.78 62.64c-6.048 0 10.944-11.772 10.944-26.316 0-14.544-16.992-26.316-10.944-26.316S32.724 21.78 32.724 36.324c0 14.544-4.896 26.316-10.944 26.316z" fill="#FCFFEF" fill-rule="nonzero"/><path d="M34.416 63.576c-6.156 0-1.008-12.42-1.008-26.964C33.408 22.068 28.296 9 34.416 9s.468 13.068.468 27.612c0 14.544 5.688 26.964-.468 26.964z" fill="#FCFFEF" fill-rule="nonzero"/><ellipse fill="#D3DD16" fill-rule="nonzero" cx="34.308" cy="36.396" rx="7.452" ry="1.368"/><circle fill="#D3DD16" fill-rule="nonzero" cx="45.684" cy="33.84" r="1"/><path d="M41.472 36.252c1.08-.288 1.836-.54 2.34-.864.504-.288 1.08-.792 1.728-1.512m-4.176 2.484c1.08.288 1.836.54 2.34.864.504.288 1.08.792 1.728 1.512" stroke="#D3DD16" stroke-width=".5" stroke-linecap="square"/><circle fill="#D3DD16" fill-rule="nonzero" cx="45.684" cy="38.952" r="1"/><path d="M27.648 37.008c.144 0 1.26-.108 1.476-.18.936-.288 2.34-1.188 2.916-1.728m-.864 2.52c.72-.18 1.584-.648 1.944-.864.504-.288 1.116-.864 1.872-1.728m.828 2.7c.036 0 1.08-.36 1.116-.36.396-.144.756-.252 1.008-.396.468-.252 1.008-.72 1.656-1.44" stroke="#FFF" stroke-width=".5" stroke-linecap="square"/><path d="M27.396 35.892c.864.216 1.044.324 1.476.54.324.18 1.332 1.044 1.368 1.08m.612-2.304l1.152.324c.972.252 1.656.468 1.98.684.468.288 1.26.864 1.872 1.512m-.828-2.7c1.08.288 1.836.54 2.34.864.504.288 1.08.792 1.728 1.512" stroke="#FFF" stroke-width=".5" stroke-linecap="square"/></g></svg>